<?xml version="1.0" encoding="UTF-8" standalone="no"?>
<svg width="41px" height="41px" viewBox="0 0 41 41" version="1.1" xmlns="http://www.w3.org/2000/svg" xmlns:xlink="http://www.w3.org/1999/xlink" xmlns:sketch="http://www.bohemiancoding.com/sketch/ns">
    <!-- Generator: Sketch 3.5.2 (25235) - http://www.bohemiancoding.com/sketch -->
    <title>@</title>
    <desc>Created with Sketch.</desc>
    <defs></defs>
    <g id="Page-1" stroke="none" stroke-width="1" fill="none" fill-rule="evenodd" sketch:type="MSPage">
        <path d="M21.0458261,13.8222609 C20.0675603,13.8222609 19.2070617,14.0849394 18.4643043,14.6103043 C17.721547,15.1356693 17.0965533,15.8150103 16.5893043,16.6483478 C16.0820554,17.4816853 15.7016245,18.4055891 15.448,19.420087 C15.1943755,20.4345848 15.0675652,21.4309516 15.0675652,22.4092174 C15.0675652,22.8802342 15.1219125,23.3965334 15.2306087,23.9581304 C15.3393049,24.5197274 15.5385783,25.0450845 15.8284348,25.5342174 C16.1182913,26.0233503 16.516838,26.4309549 17.024087,26.7570435 C17.5313359,27.0831321 18.1835033,27.2461739 18.9806087,27.2461739 C20.1038027,27.2461739 21.0458223,26.9653796 21.8066957,26.4037826 C22.567569,25.8421856 23.1925628,25.1537867 23.6816957,24.3385652 C24.1708285,23.5233438 24.5240859,22.6356715 24.7414783,21.6755217 C24.9588707,20.715372 25.0675652,19.8367576 25.0675652,19.0396522 C25.0675652,18.387475 25.0041601,17.7534234 24.8773478,17.1374783 C24.7505356,16.5215332 24.5331465,15.9690024 24.2251739,15.4798696 C23.9172014,14.9907367 23.5095967,14.5921899 23.0023478,14.2842174 C22.4950989,13.9762448 21.8429315,13.8222609 21.0458261,13.8222609 L21.0458261,13.8222609 Z M38.2197391,34.2570435 C36.0820473,36.5034315 33.5548986,38.1519658 30.6382174,39.2026957 C27.7215361,40.2534255 24.5784516,40.7787826 21.2088696,40.7787826 C18.092912,40.7787826 15.2577954,40.2805992 12.7034348,39.2842174 C10.1490742,38.2878356 7.966125,36.9019799 6.15452174,35.1266087 C4.34291848,33.3512375 2.93894701,31.2226356 1.94256522,28.7407391 C0.946183424,26.2588427 0.448,23.5505364 0.448,20.6157391 C0.448,17.7171739 0.991472826,15.0360413 2.07843478,12.5722609 C3.16539674,10.1084804 4.65088913,7.97082065 6.53495652,6.15921739 C8.41902391,4.34761413 10.6200889,2.9255269 13.1382174,1.89291304 C15.6563459,0.860299185 18.3465364,0.344 21.2088696,0.344 C23.67265,0.344 26.0639304,0.706315217 28.3827826,1.43095652 C30.7016348,2.15559783 32.7577736,3.24254348 34.5512609,4.69182609 C36.3447481,6.1411087 37.7758932,7.95268478 38.8447391,10.1266087 C39.9135851,12.3005326 40.448,14.8548549 40.448,17.7896522 C40.448,19.9635761 40.1581478,21.8838467 39.5784348,23.5505217 C38.9987217,25.2171967 38.219744,26.6121103 37.2414783,27.7353043 C36.2632125,28.8584984 35.1309774,29.7008813 33.8447391,30.2624783 C32.5585008,30.8240753 31.2088766,31.1048696 29.7958261,31.1048696 C28.2740793,31.1048696 27.1056128,30.7334965 26.2903913,29.9907391 C25.4751698,29.2479818 25.0675652,28.3512516 25.0675652,27.3005217 L24.7958261,27.3005217 C24.5784337,27.6990745 24.2704658,28.1247948 23.871913,28.5776957 C23.4733603,29.0305965 22.9842348,29.447259 22.4045217,29.8276957 C21.8248087,30.2081323 21.1816992,30.5161003 20.4751739,30.7516087 C19.7686486,30.9871171 18.980613,31.1048696 18.1110435,31.1048696 C15.647263,31.1048696 13.7269924,30.2806024 12.3501739,28.6320435 C10.9733554,26.9834845 10.2849565,24.8548826 10.2849565,22.2461739 C10.2849565,20.7244272 10.5385772,19.220819 11.0458261,17.7353043 C11.553075,16.2497897 12.2777054,14.936397 13.2197391,13.795087 C14.1617728,12.6537769 15.2940079,11.7298731 16.6164783,11.0233478 C17.9389486,10.3168226 19.4153832,9.96356522 21.0458261,9.96356522 C22.4226446,9.96356522 23.600169,10.2624753 24.5784348,10.8603043 C25.5567005,11.4581334 26.2088679,12.1918217 26.5349565,13.0613913 L26.6436522,13.0613913 L27.1327826,10.7787826 L31.2632174,10.7787826 L29.1436522,20.9961739 C29.034956,21.5034228 28.9172035,22.1374745 28.7903913,22.8983478 C28.6635791,23.6592212 28.6001739,24.3113886 28.6001739,24.8548696 C28.6001739,25.4708147 28.7269842,26.0324033 28.9806087,26.5396522 C29.2342332,27.0469011 29.8320533,27.3005217 30.774087,27.3005217 C31.5711924,27.3005217 32.3048807,27.0740747 32.9751739,26.6211739 C33.6454671,26.1682731 34.2161136,25.5432793 34.6871304,24.7461739 C35.1581473,23.9490685 35.5295204,22.9889332 35.8012609,21.8657391 C36.0730014,20.7425451 36.2088696,19.5287891 36.2088696,18.2244348 C36.2088696,15.9418147 35.8374965,13.9309652 35.0947391,12.1918261 C34.3519818,10.452687 33.3103255,8.99436821 31.9697391,7.81682609 C30.6291527,6.63928397 29.0349658,5.75161168 27.1871304,5.15378261 C25.3392951,4.55595353 23.3284457,4.25704348 21.1545217,4.25704348 C18.7632054,4.25704348 16.5893141,4.67370598 14.6327826,5.50704348 C12.6762511,6.34038098 10.9914853,7.49978967 9.57843478,8.98530435 C8.16538424,10.470819 7.07843859,12.2189899 6.31756522,14.2298696 C5.55669185,16.2407492 5.17626087,18.4055826 5.17626087,20.7244348 C5.17626087,23.1882152 5.58386549,25.4164538 6.39908696,27.4092174 C7.21430842,29.401981 8.34654348,31.0958046 9.79582609,32.4907391 C11.2451087,33.8856736 12.9751639,34.9635614 14.9860435,35.7244348 C16.9969231,36.4853082 19.2161038,36.8657391 21.6436522,36.8657391 C24.7233777,36.8657391 27.3773367,36.3856715 29.6056087,35.4255217 C31.8338807,34.465372 33.8719038,33.1157478 35.7197391,31.3766087 L38.2197391,34.2570435 Z" id="@" fill="#FFFFFF" sketch:type="MSShapeGroup"></path>
    </g>
</svg>