<?xml version="1.0" encoding="UTF-8" standalone="no"?>
<svg width="32" height="26" xmlns="http://www.w3.org/2000/svg" fill="#fff">
<path d="M32,22.9263968 C30.8232273,22.4041645 29.5577344,22.0512029 28.2299734,21.8921853 C29.585123,22.7050175 30.625655,23.991485 31.1158404,25.5240985 C29.8475384,24.7714977 28.4429957,24.2255988 26.9469236,23.9313471 C25.7500192,25.206906 24.0437339,26.004218 22.1555604,26.004218 C18.5297335,26.004218 15.5909621,23.0652125 15.5909621,19.4396197 C15.5909621,18.9249016 15.6484781,18.4237139 15.7608649,17.9435476 C10.3046848,18.2169653 5.46743985,20.8312874 2.22950081,24.8026318 C1.66438307,23.8334973 1.3406828,22.7059539 1.3406828,21.5026588 C1.3406828,19.2247715 2.499173,17.2157604 4.26119519,16.0380514 C3.18510482,16.0716902 2.17268706,16.3671357 1.28754427,16.8591939 C1.28653768,16.8315712 1.28653768,16.8042294 1.28653768,16.776794 C1.28653768,13.5955049 3.5497241,10.942792 6.55263633,10.3393068 C6.00224288,10.1892548 5.42242426,10.1098981 4.82364431,10.1098981 C4.4001981,10.1098981 3.98962687,10.149951 3.58809153,10.2269434 C4.42405192,7.61894172 6.84803507,5.7207023 9.72126119,5.66756377 C7.47263519,3.90650135 4.64243489,2.85754206 1.56648644,2.85754206 C1.03695045,2.85754206 0.513992391,2.88872291 0,2.94907143 C2.90646697,1.08646057 6.35672604,0 10.0644846,0 C22.1393379,0 28.7416249,10.0029188 28.7416249,18.6787789 C28.7416249,18.963269 28.7350703,19.2458162 28.7231317,19.5273568 C30.0052451,20.4536761 31.1181111,21.6095913 31.9987593,22.92635" transform="translate(0,26) scale(1,-1)"></path>
</svg>